# Blender v2.77 (sub 0) OBJ File: ''
# www.blender.org
mtllib akva.mtl
o Cube
v 8.279786 -0.068207 -8.054527
v 8.279786 -0.068207 8.061034
v -8.562447 -0.068207 8.061032
v -8.562443 -0.068207 -8.054531
v 8.279790 122.237930 -8.054523
v 8.279780 122.237930 8.061039
v -8.562449 122.237930 8.061031
v -8.562445 122.237930 -8.054528
vn 0.0000 -1.0000 0.0000
vn 1.0000 -0.0000 0.0000
vn -0.0000 -0.0000 1.0000
vn -1.0000 -0.0000 -0.0000
vn 0.0000 0.0000 -1.0000
usemtl Material
s off
f 1//1 3//1 4//1
f 5//2 2//2 1//2
f 6//3 3//3 2//3
f 3//4 8//4 4//4
f 1//5 8//5 5//5
f 1//1 2//1 3//1
f 5//2 6//2 2//2
f 6//3 7//3 3//3
f 3//4 7//4 8//4
f 1//5 4//5 8//5
