# Blender v2.77 (sub 0) OBJ File: ''
# www.blender.org
mtllib waterForm.mtl
o Cube
v 0.696777 -1.544779 0.357995
v 0.223263 -0.150117 1.711029
v -1.531467 0.141192 0.796664
v -1.057953 -1.253471 -0.556370
v 1.531467 -0.141192 -0.796663
v 1.057952 1.253471 0.556370
v -0.696777 1.544779 -0.357995
v -0.223263 0.150117 -1.711029
vn -0.4173 -0.7018 0.5773
vn 0.4173 0.7018 -0.5773
vn 0.8774 -0.1457 0.4572
vn -0.2368 0.6973 0.6765
vn -0.8774 0.1457 -0.4572
vn 0.2368 -0.6973 -0.6765
usemtl Material
s off
f 1//1 3//1 4//1
f 8//2 6//2 5//2
f 5//3 2//3 1//3
f 6//4 3//4 2//4
f 3//5 8//5 4//5
f 1//6 8//6 5//6
f 1//1 2//1 3//1
f 8//2 7//2 6//2
f 5//3 6//3 2//3
f 6//4 7//4 3//4
f 3//5 7//5 8//5
f 1//6 4//6 8//6
